<?xml version="1.0" encoding="UTF-8" standalone="no"?>
<!DOCTYPE svg PUBLIC "-//W3C//DTD SVG 1.1//EN" "http://www.w3.org/Graphics/SVG/1.1/DTD/svg11.dtd">
<svg width="100%" height="100%" viewBox="0 0 3508 854" version="1.1" xmlns="http://www.w3.org/2000/svg" xmlns:xlink="http://www.w3.org/1999/xlink" xml:space="preserve" xmlns:serif="http://www.serif.com/" style="fill-rule:evenodd;clip-rule:evenodd;stroke-linejoin:round;stroke-miterlimit:2;">
    <g transform="matrix(1,0,0,1,0,-881.03)">
        <g transform="matrix(0.944145,0,0,0.944145,-27.3608,145.643)">
            <path d="M882.411,1401.32C858.951,1401.32 838.649,1397.71 821.505,1390.49C804.362,1383.27 791.053,1372.61 781.579,1358.49C772.104,1344.38 767.174,1327.07 766.787,1306.58L824.212,1306.58C824.728,1316.37 827.499,1324.65 832.526,1331.42C837.553,1338.19 844.321,1343.28 852.828,1346.7C861.336,1350.11 871.067,1351.82 882.024,1351.82C892.594,1351.82 901.842,1350.27 909.77,1347.18C917.697,1344.09 923.852,1339.77 928.235,1334.23C932.617,1328.68 934.809,1322.3 934.809,1315.08C934.809,1308.51 932.907,1302.97 929.105,1298.46C925.302,1293.94 919.695,1290.08 912.283,1286.86C904.872,1283.63 895.687,1280.8 884.731,1278.35L853.408,1270.61C828.144,1264.68 808.583,1255.31 794.726,1242.48C780.87,1229.65 773.941,1212.8 773.941,1191.92C773.941,1174.52 778.614,1159.31 787.959,1146.29C797.304,1133.27 810.13,1123.12 826.436,1115.84C842.742,1108.55 861.464,1104.91 882.604,1104.91C904.001,1104.91 922.66,1108.59 938.579,1115.93C954.498,1123.28 966.905,1133.53 975.799,1146.68C984.693,1159.82 989.333,1175.1 989.72,1192.5L932.875,1192.5C931.844,1180.51 926.849,1171.17 917.89,1164.46C908.932,1157.76 897.041,1154.41 882.217,1154.41C872.292,1154.41 863.72,1155.86 856.502,1158.76C849.283,1161.66 843.773,1165.66 839.97,1170.75C836.168,1175.84 834.267,1181.67 834.267,1188.25C834.267,1195.08 836.297,1200.78 840.357,1205.36C844.417,1209.93 850.025,1213.74 857.179,1216.77C864.332,1219.79 872.356,1222.34 881.251,1224.4L907.546,1230.78C920.307,1233.62 932.005,1237.39 942.639,1242.09C953.273,1246.8 962.458,1252.5 970.192,1259.21C977.926,1265.91 983.855,1273.84 987.98,1282.99C992.105,1292.14 994.167,1302.58 994.167,1314.31C994.167,1331.97 989.72,1347.34 980.826,1360.42C971.932,1373.51 959.171,1383.59 942.543,1390.68C925.914,1397.77 905.871,1401.32 882.411,1401.32Z" style="fill:rgb(220,44,24);fill-rule:nonzero;"/>
            <path d="M1078.47,1333.07L1078.47,1274.87C1084.53,1264.81 1090.52,1255.37 1096.45,1246.54C1102.38,1237.71 1108.69,1228.91 1115.4,1220.15C1122.1,1211.38 1129.64,1201.97 1138.02,1191.92L1208.59,1108.97L1280.71,1108.97L1159.1,1249.54L1154.26,1248.18L1078.47,1333.07ZM1034.96,1397.06L1034.96,1108.97L1094.13,1108.97L1094.13,1187.86L1093.36,1261.14L1094.13,1289.95L1094.13,1397.06L1034.96,1397.06ZM1214.2,1397.06L1128.55,1266.94L1165.48,1222.66L1283.61,1397.06L1214.2,1397.06Z" style="fill:rgb(220,44,24);fill-rule:nonzero;"/>
            <path d="M1400.59,1400.93C1370.81,1400.93 1347.35,1393.1 1330.21,1377.44C1313.07,1361.78 1304.49,1339.45 1304.49,1310.44L1304.49,1293.04L1362.89,1293.04L1362.89,1311.02C1362.89,1324.69 1366.24,1335.06 1372.94,1342.15C1379.64,1349.24 1388.8,1352.79 1400.4,1352.79C1411.87,1352.79 1420.92,1349.24 1427.56,1342.15C1434.2,1335.06 1437.52,1324.69 1437.52,1311.02L1437.52,1108.97L1496.3,1108.97L1496.3,1310.44C1496.3,1339.45 1487.76,1361.78 1470.68,1377.44C1453.6,1393.1 1430.24,1400.93 1400.59,1400.93Z" style="fill:rgb(220,44,24);fill-rule:nonzero;"/>
            <path d="M1672.63,1401.12C1647.11,1401.12 1624.17,1395.26 1603.8,1383.53C1583.43,1371.8 1567.35,1354.91 1555.56,1332.87C1543.77,1310.83 1537.87,1284.28 1537.87,1253.21C1537.87,1222.02 1543.77,1195.37 1555.56,1173.26C1567.35,1151.15 1583.43,1134.24 1603.8,1122.51C1624.17,1110.78 1647.11,1104.91 1672.63,1104.91C1698.15,1104.91 1721.07,1110.78 1741.37,1122.51C1761.67,1134.24 1777.72,1151.15 1789.51,1173.26C1801.31,1195.37 1807.2,1222.02 1807.2,1253.21C1807.2,1284.28 1801.31,1310.86 1789.51,1332.97C1777.72,1355.08 1761.67,1371.96 1741.37,1383.63C1721.07,1395.29 1698.15,1401.12 1672.63,1401.12ZM1672.63,1348.73C1687.59,1348.73 1700.67,1345.05 1711.88,1337.71C1723.1,1330.36 1731.83,1319.56 1738.08,1305.32C1744.33,1291.08 1747.46,1273.71 1747.46,1253.21C1747.46,1232.59 1744.33,1215.12 1738.08,1200.81C1731.83,1186.51 1723.1,1175.68 1711.88,1168.33C1700.67,1160.98 1687.59,1157.31 1672.63,1157.31C1657.81,1157.31 1644.76,1161.02 1633.48,1168.43C1622.2,1175.84 1613.43,1186.67 1607.18,1200.91C1600.93,1215.15 1597.81,1232.59 1597.81,1253.21C1597.81,1273.71 1600.93,1291.04 1607.18,1305.22C1613.43,1319.4 1622.2,1330.2 1633.48,1337.61C1644.76,1345.02 1657.81,1348.73 1672.63,1348.73ZM1715.56,1079.97C1707.31,1079.97 1700.31,1077.17 1694.58,1071.56C1688.84,1065.95 1685.97,1059.22 1685.97,1051.35C1685.97,1043.36 1688.84,1036.6 1694.58,1031.05C1700.31,1025.51 1707.31,1022.74 1715.56,1022.74C1723.81,1022.74 1730.77,1025.51 1736.44,1031.05C1742.11,1036.6 1744.94,1043.36 1744.94,1051.35C1744.94,1059.35 1742.11,1066.11 1736.44,1071.66C1730.77,1077.2 1723.81,1079.97 1715.56,1079.97ZM1629.71,1079.97C1621.59,1079.97 1614.66,1077.17 1608.92,1071.56C1603.19,1065.95 1600.32,1059.22 1600.32,1051.35C1600.32,1043.36 1603.19,1036.6 1608.92,1031.05C1614.66,1025.51 1621.59,1022.74 1629.71,1022.74C1637.96,1022.74 1644.92,1025.51 1650.59,1031.05C1656.26,1036.6 1659.1,1043.36 1659.1,1051.35C1659.1,1059.35 1656.26,1066.11 1650.59,1071.66C1644.92,1077.2 1637.96,1079.97 1629.71,1079.97Z" style="fill:rgb(220,44,24);fill-rule:nonzero;"/>
            <path d="M1848.97,1397.06L1848.97,1108.97L1908.13,1108.97L1908.13,1347.57L2034,1347.57L2034,1397.06L1848.97,1397.06Z" style="fill:rgb(220,44,24);fill-rule:nonzero;"/>
            <path d="M2173.6,1397.06L2098.97,1397.06L2098.97,1346.41L2170.7,1346.41C2189.39,1346.41 2205.02,1343.06 2217.59,1336.35C2230.16,1329.65 2239.6,1319.37 2245.91,1305.51C2252.23,1291.66 2255.39,1274.09 2255.39,1252.83C2255.39,1231.68 2252.23,1214.22 2245.91,1200.43C2239.6,1186.63 2230.19,1176.39 2217.69,1169.68C2205.18,1162.98 2189.65,1159.63 2171.09,1159.63L2097.62,1159.63L2097.62,1108.97L2174.57,1108.97C2203.57,1108.97 2228.48,1114.74 2249.3,1126.28C2270.12,1137.81 2286.16,1154.35 2297.44,1175.87C2308.72,1197.4 2314.36,1223.05 2314.36,1252.83C2314.36,1282.73 2308.72,1308.44 2297.44,1329.97C2286.16,1351.5 2270.02,1368.06 2249.01,1379.66C2228,1391.26 2202.86,1397.06 2173.6,1397.06ZM2131.26,1108.97L2131.26,1397.06L2072.09,1397.06L2072.09,1108.97L2131.26,1108.97Z" style="fill:rgb(220,44,24);fill-rule:nonzero;"/>
            <path d="M2474.84,1401.12C2450.99,1401.12 2430.18,1396.74 2412.39,1387.98C2394.6,1379.21 2380.78,1366.93 2370.92,1351.14C2361.05,1335.35 2356.12,1317.02 2356.12,1296.13L2356.12,1108.97L2414.9,1108.97L2414.9,1291.3C2414.9,1302.52 2417.39,1312.47 2422.35,1321.17C2427.31,1329.88 2434.3,1336.71 2443.33,1341.67C2452.35,1346.63 2462.85,1349.11 2474.84,1349.11C2486.96,1349.11 2497.53,1346.63 2506.55,1341.67C2515.57,1336.71 2522.53,1329.88 2527.43,1321.17C2532.33,1312.47 2534.78,1302.52 2534.78,1291.3L2534.78,1108.97L2593.75,1108.97L2593.75,1296.13C2593.75,1317.02 2588.82,1335.35 2578.96,1351.14C2569.1,1366.93 2555.24,1379.21 2537.39,1387.98C2519.54,1396.74 2498.69,1401.12 2474.84,1401.12Z" style="fill:rgb(220,44,24);fill-rule:nonzero;"/>
            <path d="M2643.44,1397.06L2643.44,1108.97L2708.6,1108.97L2800.06,1255.14C2804.31,1261.98 2808.76,1269.61 2813.4,1278.06C2818.04,1286.5 2822.84,1295.88 2827.8,1306.19C2832.76,1316.5 2837.7,1327.72 2842.59,1339.83L2836.21,1343.31C2835.44,1333 2834.73,1321.88 2834.09,1309.96C2833.44,1298.04 2832.93,1286.6 2832.54,1275.64C2832.15,1264.68 2831.96,1255.53 2831.96,1248.18L2831.96,1108.97L2892.09,1108.97L2892.09,1397.06L2826.74,1397.06L2743.79,1264.62C2738.25,1255.6 2732.87,1246.48 2727.65,1237.26C2722.43,1228.04 2716.95,1217.76 2711.21,1206.42C2705.48,1195.08 2698.81,1181.87 2691.2,1166.78L2699.32,1165.24C2700.1,1179.29 2700.84,1192.66 2701.55,1205.36C2702.25,1218.05 2702.8,1229.49 2703.19,1239.68C2703.58,1249.86 2703.77,1258.11 2703.77,1264.43L2703.77,1397.06L2643.44,1397.06Z" style="fill:rgb(220,44,24);fill-rule:nonzero;"/>
            <path d="M3069.78,1401.12C3042.84,1401.12 3019.16,1395.1 2998.72,1383.05C2978.29,1370.99 2962.37,1353.91 2950.97,1331.81C2939.56,1309.7 2933.86,1283.57 2933.86,1253.4C2933.86,1222.34 2939.78,1195.72 2951.64,1173.55C2963.5,1151.38 2979.58,1134.4 2999.88,1122.6C3020.19,1110.81 3043.1,1104.91 3068.62,1104.91C3084.86,1104.91 3100.04,1107.27 3114.15,1111.97C3128.27,1116.67 3140.8,1123.41 3151.76,1132.17C3162.72,1140.94 3171.71,1151.28 3178.73,1163.21C3185.76,1175.13 3190.24,1188.31 3192.17,1202.75L3132.04,1202.75C3130.11,1195.66 3127.3,1189.34 3123.63,1183.8C3119.95,1178.26 3115.47,1173.49 3110.19,1169.49C3104.91,1165.5 3098.88,1162.47 3092.11,1160.4C3085.35,1158.34 3077.84,1157.31 3069.59,1157.31C3054.51,1157.31 3041.26,1161.05 3029.85,1168.52C3018.45,1176 3009.58,1186.86 3003.27,1201.1C2996.95,1215.35 2993.79,1232.59 2993.79,1252.83C2993.79,1273.06 2996.92,1290.34 3003.17,1304.64C3009.42,1318.95 3018.28,1329.88 3029.76,1337.42C3041.23,1344.96 3054.76,1348.73 3070.36,1348.73C3084.15,1348.73 3096.08,1346.18 3106.13,1341.09C3116.18,1336 3123.89,1328.81 3129.24,1319.53C3134.59,1310.25 3137.26,1299.36 3137.26,1286.86L3150.02,1288.6L3074.81,1288.6L3074.81,1243.74L3194.88,1243.74L3194.88,1279.89C3194.88,1304.77 3189.5,1326.27 3178.73,1344.38C3167.97,1362.49 3153.18,1376.47 3134.36,1386.33C3115.54,1396.19 3094.01,1401.12 3069.78,1401.12Z" style="fill:rgb(220,44,24);fill-rule:nonzero;"/>
            <path d="M3208.22,1397.06L3307.41,1108.97L3384.36,1108.97L3485.48,1397.06L3419.74,1397.06L3373.73,1257.85C3368.18,1239.81 3362.54,1220.31 3356.81,1199.36C3351.07,1178.42 3344.98,1155.38 3338.54,1130.24L3352.07,1130.24C3345.76,1155.38 3339.89,1178.48 3334.48,1199.56C3329.06,1220.63 3323.65,1240.06 3318.24,1257.85L3273.18,1397.06L3208.22,1397.06ZM3270.28,1331.13L3270.28,1284.53L3423.42,1284.53L3423.42,1331.13L3270.28,1331.13Z" style="fill:rgb(220,44,24);fill-rule:nonzero;"/>
            <path d="M3518.16,1397.06L3518.16,1108.97L3631.27,1108.97C3653.05,1108.97 3671.68,1112.84 3687.15,1120.57C3702.62,1128.31 3714.44,1139.2 3722.63,1153.25C3730.81,1167.3 3734.9,1183.86 3734.9,1202.94C3734.9,1221.89 3730.72,1238.26 3722.34,1252.05C3713.96,1265.84 3701.91,1276.41 3686.18,1283.76C3670.45,1291.11 3651.51,1294.78 3629.34,1294.78L3553.35,1294.78L3553.35,1247.02L3622.18,1247.02C3633.78,1247.02 3643.45,1245.32 3651.18,1241.9C3658.92,1238.49 3664.75,1233.49 3668.68,1226.92C3672.61,1220.34 3674.58,1212.35 3674.58,1202.94C3674.58,1193.27 3672.61,1185.12 3668.68,1178.48C3664.75,1171.84 3658.92,1166.75 3651.18,1163.21C3643.45,1159.66 3633.72,1157.89 3621.99,1157.89L3577.32,1157.89L3577.32,1397.06L3518.16,1397.06ZM3679.22,1397.06L3610,1266.17L3673.81,1266.17L3744.38,1397.06L3679.22,1397.06Z" style="fill:rgb(220,44,24);fill-rule:nonzero;"/>
            <g id="skjoldungar_merki.svg" transform="matrix(0.780691,0,0,0.780691,357.65,1230.91)">
                <g transform="matrix(1,0,0,1,-421,-579)">
                    <g transform="matrix(1,0,0,1,0,-16.5903)">
                        <g transform="matrix(1.18361,0,0,1.18361,-77.2897,-158.702)">
                            <path d="M65.3,148.1L776.59,148.1L776.59,811.98L423.44,1125.93L65.3,810.34L65.3,148.1Z" style="fill:rgb(244,235,39);fill-rule:nonzero;"/>
                        </g>
                        <g transform="matrix(1.18361,0,0,1.18361,-77.2897,-158.702)">
                            <path d="M108.73,190.21L739.73,190.21L741.88,796.88L423.44,1067.31L108.73,798.31L108.73,190.21Z" style="fill:rgb(220,44,24);fill-rule:nonzero;"/>
                        </g>
                        <g transform="matrix(1.18361,0,0,1.18361,-77.2897,-158.702)">
                            <path d="M299.75,437.74L423.44,306.1L548,437.74L467.87,650.22L577.33,462.07L706.11,604.44L608.81,811.91L563.74,703.16L505.79,757.54L571.61,866.28L461.43,812.62L500.07,892.75L423.44,979.32L344.82,892.03L382.74,811.19L276.86,866.28L344.82,758.25L281.86,703.16L243.95,810.48L139.49,603.72L271.13,462.07L382.02,650.94L299.75,437.74Z" style="fill:rgb(244,235,39);fill-rule:nonzero;"/>
                        </g>
                    </g>
                </g>
            </g>
        </g>
    </g>
</svg>
