<?xml version="1.0" encoding="UTF-8" standalone="no"?>
<!DOCTYPE svg PUBLIC "-//W3C//DTD SVG 1.1//EN" "http://www.w3.org/Graphics/SVG/1.1/DTD/svg11.dtd">
<svg width="100%" height="100%" viewBox="0 0 842 1158" version="1.1" xmlns="http://www.w3.org/2000/svg" xmlns:xlink="http://www.w3.org/1999/xlink" xml:space="preserve" xmlns:serif="http://www.serif.com/" style="fill-rule:evenodd;clip-rule:evenodd;stroke-linejoin:round;stroke-miterlimit:2;">
    <g transform="matrix(1,0,0,1,0,-16.5903)">
        <g transform="matrix(1.18361,0,0,1.18361,-77.2897,-158.702)">
            <path d="M65.3,148.1L776.59,148.1L776.59,811.98L423.44,1125.93L65.3,810.34L65.3,148.1Z" style="fill:rgb(244,235,39);fill-rule:nonzero;"/>
            <path d="M108.73,190.21L739.73,190.21L741.88,796.88L423.44,1067.31L108.73,798.31L108.73,190.21Z" style="fill:rgb(220,44,24);fill-rule:nonzero;"/>
            <path d="M299.75,437.74L423.44,306.1L548,437.74L467.87,650.22L577.33,462.07L706.11,604.44L608.81,811.91L563.74,703.16L505.79,757.54L571.61,866.28L461.43,812.62L500.07,892.75L423.44,979.32L344.82,892.03L382.74,811.19L276.86,866.28L344.82,758.25L281.86,703.16L243.95,810.48L139.49,603.72L271.13,462.07L382.02,650.94L299.75,437.74Z" style="fill:rgb(244,235,39);fill-rule:nonzero;"/>
        </g>
    </g>
</svg>
