<?xml version="1.0" encoding="UTF-8" standalone="no"?>
<!DOCTYPE svg PUBLIC "-//W3C//DTD SVG 1.1//EN" "http://www.w3.org/Graphics/SVG/1.1/DTD/svg11.dtd">
<svg width="100%" height="100%" viewBox="0 0 284 78" version="1.1" xmlns="http://www.w3.org/2000/svg" xmlns:xlink="http://www.w3.org/1999/xlink" xml:space="preserve" xmlns:serif="http://www.serif.com/" style="fill-rule:evenodd;clip-rule:evenodd;stroke-linejoin:round;stroke-miterlimit:2;">
    <g transform="matrix(1,0,0,1,-25.845,-25.845)">
        <path d="M117.545,36.203L123.759,36.203L127.827,52.33C129.417,46.116 131.489,41.566 132.266,36.203L138.183,36.203C138.96,41.566 141.105,46.116 142.733,52.367L146.69,36.203L152.571,36.203L145.655,61.576L139.626,61.613C138.146,54.845 136.445,50.703 135.076,46.116C133.708,50.702 132.044,54.845 130.564,61.576L124.535,61.576L117.545,36.203ZM166.553,35.537C174.21,35.537 179.98,41.197 179.98,48.853C179.98,56.583 174.247,62.243 166.553,62.243C158.859,62.243 153.127,56.583 153.127,48.853C153.127,41.196 158.897,35.537 166.553,35.537ZM174.173,48.853C174.173,44.193 171.066,40.826 166.553,40.826C162.041,40.826 158.934,44.192 158.934,48.853C158.934,53.55 162.078,56.953 166.554,56.953C171.029,56.953 174.173,53.55 174.173,48.853ZM183.309,36.203L194.812,36.203C200.397,36.203 204.022,39.199 204.022,43.97C204.022,48.039 201.582,50.702 197.845,51.7C198.992,54.29 200.841,56.324 203.43,56.324C203.911,56.324 204.244,56.287 204.466,56.25L204.466,61.576C203.966,61.669 203.459,61.719 202.95,61.724C198.326,61.724 195.33,59.838 192.63,53.735L191.89,52.071C190.115,52.181 189.153,52.921 189.153,54.734L189.153,61.576L183.309,61.576L183.309,36.203ZM194.442,47.336C197.586,47.336 198.252,45.598 198.252,44.266C198.252,42.195 196.92,41.196 194.368,41.196L189.153,41.196L189.153,47.336L194.443,47.336L194.442,47.336ZM208.165,36.203L214.009,36.203L214.009,56.324L225.659,56.324L225.659,61.576L208.165,61.576L208.165,36.203ZM228.804,36.203L238.902,36.203C246.558,36.203 251.847,41.64 251.847,48.853C251.847,56.139 246.558,61.576 238.902,61.576L228.804,61.576L228.804,36.203ZM238.384,56.509C243.192,56.509 246.04,53.55 246.04,48.853C246.04,44.229 243.155,41.27 238.384,41.27L234.648,41.27L234.648,56.51L238.384,56.51L238.384,56.509ZM124.04,84.443C123.959,84.794 123.921,85.154 123.929,85.515C123.929,87.624 125.889,89.103 129.181,89.103C132.658,89.103 134.396,87.772 134.396,85.774C134.396,84.591 133.73,83.888 130.808,83.222L127.073,82.372C121.303,81.077 118.898,78.858 118.898,74.642C118.898,70.202 122.819,66.985 128.811,66.985C135.173,66.985 138.243,69.685 139.315,74.197L133.805,75.677C133.435,73.014 131.845,71.571 128.626,71.571C126.185,71.571 124.594,72.681 124.594,74.382C124.594,76.047 125.593,76.564 128.33,77.193L132.103,78.043C137.429,79.227 140.129,81.373 140.129,85.441C140.129,90.361 135.691,93.689 129.144,93.689C122.264,93.689 118.307,90.545 118.307,85.7C118.307,84.369 118.455,83.481 118.751,82.704L124.04,84.443ZM167.315,84.739C165.946,90.102 162.359,93.689 155.22,93.689C147.638,93.689 142.534,88.4 142.534,80.3C142.534,72.422 147.786,66.985 155.59,66.985C162.433,66.985 166.501,70.499 166.575,76.305L160.805,77.563C160.953,73.938 159.326,72.126 155.257,72.126C151.004,72.126 148.377,75.64 148.377,80.3C148.377,85.108 151.077,88.548 155.442,88.548C159.067,88.548 160.953,86.81 161.656,83.962L167.316,84.739L167.315,84.739ZM182.777,66.985C190.433,66.985 196.203,72.644 196.203,80.3C196.203,88.03 190.47,93.69 182.777,93.69C175.084,93.69 169.35,88.03 169.35,80.3C169.35,72.644 175.12,66.985 182.777,66.985ZM190.396,80.3C190.396,75.64 187.289,72.274 182.776,72.274C178.264,72.274 175.157,75.64 175.157,80.3C175.157,84.997 178.301,88.4 182.777,88.4C187.252,88.4 190.396,84.997 190.396,80.3ZM205.191,67.65L205.191,83.148C205.191,86.033 207.115,88.363 210.444,88.363C213.884,88.363 215.696,86.033 215.696,83.148L215.696,67.65L221.429,67.65L221.429,82.926C221.429,89.251 217.509,93.689 210.444,93.689C203.379,93.689 199.347,89.509 199.347,82.926L199.347,67.65L205.191,67.65ZM231.823,72.903L224.388,72.903L224.388,67.65L245.101,67.65L245.101,72.903L237.667,72.903L237.667,93.023L231.823,93.023L231.823,72.903ZM248.245,67.65L254.09,67.65L254.09,93.024L248.245,93.024L248.245,67.65ZM258.713,67.65L264.224,67.65C264.854,71.35 272.398,78.71 274.951,81.89L274.951,67.65L280.683,67.65L280.683,93.024L275.173,93.024C274.692,88.955 267.405,82.038 264.446,78.414L264.446,93.024L258.713,93.024L258.713,67.65ZM298.586,78.414C300.805,78.858 302.432,78.969 305.724,78.969L309.312,78.969L309.312,93.024L305.724,93.024L305.058,90.176C303.172,92.58 300.398,93.689 296.81,93.689C288.71,93.689 284.012,87.624 284.012,80.448C284.012,71.904 290.374,66.985 297.328,66.985C303.578,66.985 307.055,69.574 308.609,74.049L302.839,75.344C302.21,73.273 300.398,72.126 297.328,72.126C292.926,72.126 289.819,75.159 289.819,80.633C289.819,85.774 293.185,88.548 297.254,88.548C300.62,88.548 302.728,86.921 303.616,84.036C300.879,84.073 298.844,83.851 296.847,83.37L298.586,78.414ZM257.364,36.708C259.011,36.708 260.351,38.048 260.351,39.695C260.351,41.342 259.011,42.681 257.364,42.681C255.718,42.681 254.378,41.341 254.378,39.695C254.378,38.049 255.718,36.708 257.364,36.708M257.364,36.203C255.448,36.203 253.872,37.779 253.872,39.695C253.872,41.611 255.448,43.187 257.364,43.187C259.28,43.187 260.856,41.611 260.856,39.695C260.856,37.779 259.28,36.203 257.364,36.203Z" style="fill:rgb(98,37,153);fill-rule:nonzero;"/>
        <path d="M256.139,38.047L257.625,38.047C258.347,38.047 258.815,38.434 258.815,39.05C258.815,39.575 258.499,39.92 258.017,40.048C258.165,40.383 258.404,40.646 258.738,40.646C258.783,40.646 258.828,40.643 258.872,40.636L258.872,41.324C258.829,41.334 258.738,41.344 258.676,41.344C258.079,41.344 257.692,41.099 257.343,40.311L257.248,40.096C257.018,40.11 256.894,40.206 256.894,40.44L256.894,41.324L256.139,41.324L256.139,38.047ZM257.577,39.485C257.983,39.485 258.069,39.26 258.069,39.088C258.069,38.821 257.897,38.692 257.568,38.692L256.894,38.692L256.894,39.485L257.577,39.485ZM64.613,41.757C65.507,45.955 65.726,54.237 65.726,66.83C65.726,68.923 65.719,70.787 65.703,72.465L63.523,72.465C63.507,70.587 63.5,68.708 63.501,66.83C63.501,54.236 63.721,45.955 64.613,41.757ZM103.381,64.613C103.381,86.024 86.024,103.381 64.613,103.381C43.202,103.381 25.845,86.024 25.845,64.613C25.845,43.202 43.202,25.845 64.613,25.845C86.024,25.845 103.381,43.202 103.381,64.613ZM58.432,77.171L55.624,77.171C55.056,79.054 53.859,80.483 52.159,80.95C50.784,81.328 49.352,80.985 48.086,80.143C47.193,82.554 48.827,85.411 52.126,85.411C54.978,85.411 57.674,82.829 58.432,77.171ZM72.435,87.659C70.08,84.677 68.865,81.338 68.452,77.171L65.625,77.171C65.484,82.557 65.179,85.474 64.613,88.406C64.048,85.474 63.743,82.556 63.602,77.171L60.774,77.171C60.362,81.338 59.146,84.677 56.792,87.659C56.792,87.659 60.067,91.516 64.613,93.795C69.16,91.515 72.435,87.659 72.435,87.659ZM81.141,80.143C79.875,80.985 78.443,81.328 77.067,80.95C75.367,80.483 74.171,79.054 73.603,77.17L70.795,77.17C71.553,82.829 74.249,85.41 77.101,85.41C80.4,85.41 82.034,82.554 81.141,80.143ZM92.864,64.614C92.864,59.336 88.554,55.057 83.239,55.057C75.855,55.057 71.032,62.995 70.617,72.465L68.304,72.465C68.687,61.542 74.54,57.289 74.54,50.043C74.54,42.205 66.48,35.14 64.613,33.286C62.747,35.14 54.687,42.205 54.687,50.043C54.687,57.289 60.54,61.543 60.922,72.465L58.61,72.465C58.196,62.995 53.373,55.057 45.99,55.057C40.673,55.057 36.364,59.336 36.364,64.614C36.364,69.536 40.111,73.589 44.927,74.114C43.141,70.529 44.685,66.864 48.187,66.166C51.274,65.552 54.877,67.708 55.797,72.466L52.869,72.466C52.564,72.863 52.396,73.348 52.391,73.849C52.391,74.381 52.584,74.85 52.869,75.233L76.359,75.233C76.644,74.85 76.838,74.381 76.838,73.849C76.838,73.316 76.644,72.848 76.359,72.465L73.43,72.465C74.35,67.708 77.954,65.552 81.04,66.165C84.543,66.863 86.087,70.529 84.3,74.115C89.117,73.589 92.864,69.536 92.864,64.615L92.864,64.614Z" style="fill:rgb(98,37,153);fill-rule:nonzero;"/>
    </g>
</svg>
